<?xml version="1.0" standalone="no"?>
<!DOCTYPE svg PUBLIC "-//W3C//DTD SVG 20010904//EN"
 "http://www.w3.org/TR/2001/REC-SVG-20010904/DTD/svg10.dtd">
<svg version="1.0" xmlns="http://www.w3.org/2000/svg"
 width="750.000000pt" height="1500.000000pt" viewBox="0 0 750.000000 1500.000000"
 preserveAspectRatio="xMidYMid meet">
<metadata>
Created by potrace 1.14, written by Peter Selinger 2001-2017
</metadata>
<g transform="translate(0.000000,1500.000000) scale(0.100000,-0.100000)"
fill="#000000" stroke="none">
<path d="M2273 13633 c-10 -4 -13 -1264 -13 -6253 0 -6147 0 -6249 19 -6255
22 -7 71 3 71 15 0 5 14 11 30 15 17 4 30 10 30 15 0 5 14 11 30 15 17 4 30
10 30 15 0 5 14 11 30 15 17 4 30 11 30 16 0 5 11 11 25 15 14 3 25 10 25 14
0 5 14 11 30 15 17 4 30 10 30 15 0 5 14 11 30 15 17 4 30 10 30 15 0 5 14 11
30 15 17 4 30 10 30 15 0 5 14 11 30 15 17 4 30 11 30 16 0 5 7 9 15 9 9 0 18
6 21 14 3 8 19 18 35 21 16 4 29 10 29 15 0 5 14 11 30 15 17 4 30 10 30 15 0
5 14 11 30 15 17 4 30 10 30 15 0 5 14 11 30 15 17 4 30 10 30 15 0 5 14 11
30 15 17 4 30 11 30 16 0 5 11 11 25 15 14 3 25 10 25 14 0 5 14 11 30 15 17
4 30 10 30 15 0 5 14 11 30 15 17 4 30 10 30 15 0 5 14 11 30 15 17 4 30 10
30 15 0 5 14 11 30 15 17 4 30 11 30 16 0 5 7 9 15 9 9 0 18 6 21 14 3 8 19
18 35 21 16 4 29 10 29 15 0 5 14 11 30 15 17 4 30 10 30 15 0 5 14 11 30 15
17 4 30 10 30 15 0 5 14 11 30 15 17 4 30 10 30 15 0 5 14 11 30 15 17 4 30
11 30 16 0 5 11 11 25 15 14 3 25 10 25 14 0 5 14 11 30 15 17 4 30 10 30 15
0 5 14 11 30 15 17 4 30 10 30 15 0 5 14 11 30 15 17 4 30 10 30 15 0 5 14 11
30 15 17 4 30 11 30 16 0 5 7 9 15 9 9 0 18 6 21 14 3 8 19 18 35 21 16 4 29
10 29 15 0 5 14 11 30 15 17 4 30 10 30 15 0 5 14 11 30 15 17 4 30 10 30 15
0 5 14 11 30 15 17 4 30 10 30 15 0 5 14 11 30 15 17 4 30 11 30 16 0 5 11 11
25 15 14 3 25 10 25 14 0 5 14 11 30 15 17 4 30 10 30 15 0 5 14 11 30 15 17
4 30 10 30 15 0 5 14 11 30 15 17 4 30 10 30 15 0 5 14 11 30 15 17 4 30 11
30 16 0 5 7 9 15 9 9 0 18 6 21 14 3 8 19 18 35 21 16 4 29 10 29 15 0 5 14
11 30 15 17 4 30 10 30 15 0 5 14 11 30 15 17 4 30 10 30 15 0 5 14 11 30 15
17 4 30 10 30 15 0 5 14 11 30 15 17 4 30 11 30 16 0 5 11 11 25 15 14 3 25
10 25 14 0 4 12 11 27 15 15 3 31 12 35 18 4 7 8 2373 8 5260 0 3491 3 5247
10 5247 6 0 10 9 10 20 0 11 -4 20 -10 20 -6 0 -11 91 -12 238 l-3 237 -1440
2 c-792 1 -1446 -1 -1452 -4z m577 -2188 c0 -1410 -3 -2125 -10 -2125 -15 0
-12 -29 4 -46 12 -12 76 -14 375 -14 l361 0 0 -740 0 -740 -481 0 c-396 0
-483 -2 -494 -14 -12 -11 -14 -101 -15 -507 0 -272 -1 -500 0 -506 0 -10 103
-13 480 -13 l480 0 0 -345 0 -345 -269 0 c-148 0 -276 -3 -285 -6 -15 -6 -16
-148 -16 -1516 0 -1295 2 -1511 14 -1524 22 -21 1470 -21 1492 0 12 12 14 138
14 840 l0 826 300 0 300 0 0 -1005 0 -1005 -25 -6 c-14 -3 -25 -10 -25 -14 0
-5 -13 -11 -30 -15 -16 -4 -30 -11 -30 -16 0 -5 -7 -9 -15 -9 -9 0 -18 -6 -21
-14 -3 -8 -19 -18 -35 -21 -16 -4 -29 -10 -29 -15 0 -5 -13 -11 -30 -15 -16
-4 -30 -10 -30 -15 0 -5 -13 -11 -30 -15 -16 -4 -30 -10 -30 -15 0 -5 -13 -11
-30 -15 -16 -4 -30 -10 -30 -15 0 -5 -13 -11 -30 -15 -16 -4 -30 -11 -30 -16
0 -5 -11 -11 -25 -15 -14 -3 -25 -10 -25 -14 0 -5 -13 -11 -30 -15 -16 -4 -30
-10 -30 -15 0 -5 -13 -11 -30 -15 -16 -4 -30 -10 -30 -15 0 -5 -13 -11 -30
-15 -16 -4 -30 -10 -30 -15 0 -5 -13 -11 -30 -15 -16 -4 -30 -11 -30 -16 0 -5
-7 -9 -15 -9 -9 0 -18 -6 -21 -14 -3 -8 -19 -18 -35 -21 -16 -4 -29 -10 -29
-15 0 -5 -13 -11 -30 -15 -16 -4 -30 -10 -30 -15 0 -5 -13 -11 -30 -15 -16 -4
-30 -10 -30 -15 0 -5 -13 -11 -30 -15 -16 -4 -30 -10 -30 -15 0 -5 -13 -11
-30 -15 -16 -4 -30 -11 -30 -16 0 -5 -11 -11 -25 -15 -14 -3 -25 -10 -25 -14
0 -5 -13 -11 -30 -15 -16 -4 -30 -10 -30 -15 0 -5 -13 -11 -30 -15 -16 -4 -30
-10 -30 -15 0 -5 -13 -11 -30 -15 -16 -4 -30 -10 -30 -15 0 -5 -13 -11 -30
-15 -16 -4 -30 -11 -30 -16 0 -5 -7 -9 -15 -9 -9 0 -18 -6 -21 -14 -3 -8 -19
-18 -35 -21 -16 -4 -29 -10 -29 -15 0 -5 -13 -11 -30 -15 -16 -4 -30 -10 -30
-15 0 -5 -13 -11 -30 -15 -16 -4 -30 -10 -30 -15 0 -5 -13 -11 -30 -15 -16 -4
-30 -10 -30 -15 0 -5 -13 -11 -30 -15 -16 -4 -30 -11 -30 -16 0 -5 -11 -11
-25 -15 -14 -3 -25 -10 -25 -14 0 -5 -13 -11 -30 -15 -16 -4 -30 -10 -30 -15
0 -5 -13 -11 -30 -15 -16 -4 -30 -10 -30 -15 0 -5 -13 -11 -30 -15 -16 -4 -30
-10 -30 -15 0 -5 -13 -11 -30 -15 -16 -4 -30 -11 -30 -16 0 -5 -7 -9 -15 -9
-9 0 -18 -6 -21 -14 -3 -8 -19 -18 -35 -21 -16 -4 -29 -10 -29 -15 0 -5 -13
-11 -30 -15 -16 -4 -30 -10 -30 -15 0 -5 -13 -11 -30 -15 -16 -4 -30 -10 -30
-15 0 -5 -13 -11 -30 -15 -16 -4 -30 -10 -30 -15 0 -5 -13 -11 -30 -15 -16 -4
-30 -11 -30 -16 0 -5 -11 -11 -25 -15 -14 -3 -25 -10 -25 -14 0 -5 -13 -11
-30 -15 -16 -4 -30 -10 -30 -15 0 -5 -13 -11 -30 -15 -16 -4 -30 -10 -30 -15
0 -5 -13 -11 -30 -15 -16 -4 -30 -10 -30 -15 0 -5 -13 -11 -30 -15 -16 -4 -30
-11 -30 -16 0 -5 -7 -9 -15 -9 -9 0 -18 -6 -21 -14 -3 -8 -19 -18 -35 -21 -16
-4 -29 -11 -29 -16 0 -5 -7 -9 -15 -9 -13 0 -15 693 -15 6175 l0 6175 255 0
255 0 0 -2125z m1200 226 c0 -1045 3 -1906 6 -1915 5 -14 61 -16 525 -16 l519
0 0 -380 0 -380 -114 0 c-106 0 -115 -2 -121 -20 -3 -11 -3 -29 0 -40 6 -18
15 -20 121 -20 l114 0 0 -1415 0 -1415 -295 0 -295 0 0 1415 0 1415 84 0 c76
0 85 2 91 20 3 11 3 29 0 40 -6 18 -15 20 -106 20 -79 0 -103 -3 -119 -17 -20
-17 -20 -27 -20 -1465 0 -959 -3 -1448 -10 -1448 -15 0 -12 -30 6 -47 14 -14
56 -16 340 -14 l324 2 0 -395 0 -396 -326 0 c-269 0 -328 -2 -340 -14 -12 -12
-14 -168 -14 -1065 l0 -1051 -680 0 -680 0 0 1020 0 1020 284 0 c156 0 291 3
300 6 22 9 24 258 2 280 -12 11 -66 14 -300 14 l-286 0 0 285 0 285 269 0
c148 0 276 3 285 6 14 5 16 51 16 406 0 333 -2 402 -14 414 -12 12 -90 14
-480 14 l-466 0 0 440 0 440 481 0 c403 0 483 2 495 14 21 22 21 1590 0 1612
-12 12 -75 14 -370 14 l-356 0 0 2115 0 2115 565 0 565 0 0 -1899z m1050 1704
l0 -195 -490 0 -490 0 0 195 0 195 490 0 490 0 0 -195z m0 -1670 l0 -1395
-490 0 -490 0 0 1395 0 1395 490 0 490 0 0 -1395z m0 -1675 l0 -210 -490 0
-490 0 0 210 0 210 490 0 490 0 0 -210z m-1520 -4775 l0 -75 -260 0 -260 0 0
75 0 75 260 0 260 0 0 -75z m1520 -320 l0 -185 -300 0 -300 0 0 185 0 185 300
0 300 0 0 -185z"/>
</g>
</svg>
